<svg xmlns="http://www.w3.org/2000/svg" version="1.1" xmlns:xlink="http://www.w3.org/1999/xlink" xmlns:svgjs="http://svgjs.dev/svgjs" viewBox="0 0 800 800" opacity="1"><defs><filter id="bbburst-blur-1" x="-100%" y="-100%" width="400%" height="400%"><feGaussianBlur in="SourceGraphic" stdDeviation="1"></feGaussianBlur></filter><filter id="bbburst-blur-2" x="-100%" y="-100%" width="400%" height="400%"><feGaussianBlur in="SourceGraphic" stdDeviation="2"></feGaussianBlur></filter><filter id="bbburst-blur-3" x="-100%" y="-100%" width="400%" height="400%"><feGaussianBlur in="SourceGraphic" stdDeviation="4"></feGaussianBlur></filter><filter id="bbburst-blur-4" x="-100%" y="-100%" width="400%" height="400%"><feGaussianBlur in="SourceGraphic" stdDeviation="12"></feGaussianBlur></filter><symbol id="bbburst-shape-1" viewBox="0 0 194 167"><path d="m97 0 96.129 166.5H.871L97 0Z"></path></symbol><symbol id="bbburst-shape-4" viewBox="0 0 149 143"><path d="M71.647 2.781c.898-2.764 4.808-2.764 5.706 0l15.445 47.534a3 3 0 0 0 2.853 2.073h49.98c2.906 0 4.115 3.719 1.764 5.427L106.96 87.193a2.999 2.999 0 0 0-1.09 3.354l15.445 47.534c.898 2.764-2.266 5.062-4.617 3.354l-40.435-29.378a3 3 0 0 0-3.526 0l-40.435 29.378c-2.351 1.708-5.515-.59-4.617-3.354L43.13 90.547a3 3 0 0 0-1.09-3.354L1.605 57.815c-2.35-1.708-1.142-5.427 1.764-5.427h49.98a3 3 0 0 0 2.853-2.073L71.647 2.781Z"></path></symbol><symbol id="bbburst-shape-6" viewBox="0 0 133 116"><path d="M59.7487 10.2513c-13.6683-13.66839-35.8291-13.66839-49.4974 0-13.66839 13.6683-13.66839 35.8291 0 49.4974l49.4974-49.4974ZM66.5 66.5 41.7513 91.2487 66.5 115.997l24.7487-24.7483L66.5 66.5Zm56.249-6.7513c13.668-13.6683 13.668-35.8291 0-49.4974-13.669-13.66839-35.8294-13.66839-49.4977 0l49.4977 49.4974Zm-112.4977 0 31.5 31.5 49.4974-49.4974-31.5-31.5-49.4974 49.4974Zm80.9974 31.5 31.5003-31.5-49.4977-49.4974-31.5 31.5 49.4974 49.4974Z"></path></symbol><symbol id="bbburst-shape-8" viewBox="0 0 87 168"><path d="m12 12 31.2546 18.0749c16.4102 9.4902 20.014 31.6325 7.4603 45.8369L36.3296 92.1884c-12.5684 14.2206-8.9394 36.3916 7.5068 45.8636L75 156" stroke-width="14" stroke-linecap="round" stroke-linejoin="round"></path></symbol><symbol id="bbburst-shape-10" viewBox="0 0 145 145"><circle cx="72.5" cy="72.5" r="61.5" fill="none" stroke-width="22"></circle></symbol><symbol id="bbburst-shape-12" viewBox="0 0 170 151"><path d="M69.3728 54.2122 85 10.0031l15.627 44.2091c1.413 3.9958 5.19 6.6672 9.428 6.6673h49.312l-39.149 26.1447c-3.803 2.5401-5.399 7.3367-3.875 11.6488l15.179 42.94-40.9683-27.36c-3.3621-2.245-7.7453-2.245-11.1074 0l-40.9682 27.36 15.1785-42.94c1.5243-4.3121-.0712-9.1087-3.8746-11.6488L10.6333 60.8795h49.3112c4.2381-.0001 8.0159-2.6715 9.4283-6.6673Z" stroke-width="12"></path></symbol><symbol id="bbburst-shape-14" viewBox="0 0 185 109"><path d="M168 16.5C168 58.1975 134.197 92 92.5 92 50.8025 92 17 58.1975 17 16.5" stroke-width="33" stroke-linecap="round"></path></symbol></defs><use xlink:href="#bbburst-shape-4" width="55.779034322865826" opacity="-0.06037901052131489" transform="matrix(1.7247349387361557,-0.29629274561283075,0.29629274561283075,1.7247349387361557,-105.70342449297954,54.170237723123364)" fill="#2c2891" filter="url(#bbburst-blur-4)"></use><use xlink:href="#bbburst-shape-10" width="32.0684341593333" opacity="0.4490570718606731" transform="matrix(0.7798734433553217,-0.6259372271634862,0.6259372271634862,0.7798734433553217,-109.08837759515629,127.20187710053295)" fill="none" stroke="#ffa6d5" filter="url(#bbburst-blur-2)"></use><use xlink:href="#bbburst-shape-4" width="46.256514466403665" opacity="0.4667927389417377" transform="matrix(0.7716561463761349,-0.6360399293754545,0.6360399293754545,0.7716561463761349,-27.081243140391763,-77.21119438554058)" fill="#00a19d" filter="url(#bbburst-blur-2)"></use><use xlink:href="#bbburst-shape-12" width="41.279117963901896" opacity="0.4108426828085533" transform="matrix(0.9988034088099847,0.048905526779234085,-0.048905526779234085,0.9988034088099847,402.900843058996,264.4859054622922)" fill="none" stroke="#2c2891" filter="url(#bbburst-blur-2)"></use><use xlink:href="#bbburst-shape-1" width="33.21220412206388" opacity="0.6263058704068764" transform="matrix(0.9760904393610492,-0.21736479518991567,0.21736479518991567,0.9760904393610492,129.62627667052698,30.91707403529631)" fill="#ffbd9b" filter="url(#bbburst-blur-1)"></use><use xlink:href="#bbburst-shape-4" width="28.222049887424095" opacity="0.5563393508776155" transform="matrix(0.9146182606291153,-0.40431848501369766,0.40431848501369766,0.9146182606291153,179.2788660147268,-154.37099841519924)" fill="#ff5c58" filter="url(#bbburst-blur-1)"></use><use xlink:href="#bbburst-shape-10" width="47.67609613981752" opacity="0.37821433614331557" transform="matrix(0.8587657215809924,0.5123684567159432,-0.5123684567159432,0.8587657215809924,712.218708400389,293.22129785886085)" fill="none" stroke="#ff5c58" filter="url(#bbburst-blur-2)"></use><use xlink:href="#bbburst-shape-8" width="33.355614700817014" opacity="0.10630922123634556" transform="matrix(1.650770223765992,-0.5809110674858726,0.5809110674858726,1.650770223765992,495.76689793212694,-438.33633546986016)" fill="none" stroke="#00a19d" filter="url(#bbburst-blur-4)"></use><use xlink:href="#bbburst-shape-12" width="36.71619805000003" opacity="0.45554033647054315" transform="matrix(0.8791990711495385,0.4764546077957361,-0.4764546077957361,0.8791990711495385,742.0495392944848,-139.22074354156064)" fill="none" stroke="#ffbd9b" filter="url(#bbburst-blur-2)"></use><use xlink:href="#bbburst-shape-8" width="23.95425931578058" opacity="0.7086571405230968" transform="matrix(0.9943217503344666,0.10641549140892428,-0.10641549140892428,0.9943217503344666,419.42148202825,-129.62521243723774)" fill="none" stroke="#ffa6d5" filter="url(#bbburst-blur-1)"></use><use xlink:href="#bbburst-shape-4" width="40.243392469414474" opacity="0.5782427673585853" transform="matrix(0.8783997782080433,-0.47792659440970675,0.47792659440970675,0.8783997782080433,34.88307959748238,165.96593850102568)" fill="#2c2891" filter="url(#bbburst-blur-1)"></use><use xlink:href="#bbburst-shape-8" width="31.173896444605823" opacity="0.6248764466652721" transform="matrix(0.996314761863175,-0.08577234573873302,0.08577234573873302,0.996314761863175,481.04058527430743,-103.80046250829218)" fill="none" stroke="#2c2891" filter="url(#bbburst-blur-1)"></use><use xlink:href="#bbburst-shape-4" width="39.102237084091755" opacity="0.08459528634754587" transform="matrix(1.7239400024502856,-0.30088347902752827,0.30088347902752827,1.7239400024502856,595.8323668409826,-66.2109773994531)" fill="#2c2891" filter="url(#bbburst-blur-4)"></use><use xlink:href="#bbburst-shape-14" width="41.22623788985896" opacity="0.21541622083573964" transform="matrix(1.2340301046977482,-0.1991725400241319,0.1991725400241319,1.2340301046977482,539.2268248678128,165.43491263518877)" fill="none" stroke="#00a19d" filter="url(#bbburst-blur-3)"></use><use xlink:href="#bbburst-shape-8" width="46.773292549753805" opacity="0.2443449106339466" transform="matrix(0.9982800000580355,0.7522878714189991,-0.7522878714189991,0.9982800000580355,352.35845880191823,82.43605673990845)" fill="none" stroke="#ffa6d5" filter="url(#bbburst-blur-3)"></use><use xlink:href="#bbburst-shape-12" width="27.911122208135755" opacity="0.5412995326962087" transform="matrix(0.9735748312042739,-0.22836822906343496,0.22836822906343496,0.9735748312042739,362.67289273581173,-181.31772510091412)" fill="none" stroke="#2c2891" filter="url(#bbburst-blur-2)"></use><use xlink:href="#bbburst-shape-8" width="31.382877551601567" opacity="0.5933629641123239" transform="matrix(0.9967662182894006,0.08035612034591395,-0.08035612034591395,0.9967662182894006,537.4877616224186,137.31517440580512)" fill="none" stroke="#ff5c58" filter="url(#bbburst-blur-1)"></use><use xlink:href="#bbburst-shape-12" width="33.027110634985036" opacity="0.654107986269407" transform="matrix(0.8311509290313347,0.5560468803710253,-0.5560468803710253,0.8311509290313347,504.9489929685111,-57.69906181151339)" fill="none" stroke="#2c2891" filter="url(#bbburst-blur-1)"></use><use xlink:href="#bbburst-shape-6" width="42.61480070925839" opacity="0.5327928439732287" transform="matrix(0.8949866021352639,-0.4460930194459165,0.4460930194459165,0.8949866021352639,5.226407436722781,-21.208030922599676)" fill="#ff5c58" filter="url(#bbburst-blur-2)"></use><use xlink:href="#bbburst-shape-10" width="47.04077848770014" opacity="0.10654857869720702" transform="matrix(1.2416438751973564,-1.2332155071944608,1.2332155071944608,1.2416438751973564,-474.4605775385681,-261.98029944993084)" fill="none" stroke="#2c2891" filter="url(#bbburst-blur-4)"></use><use xlink:href="#bbburst-shape-14" width="34.31977371314558" opacity="0.5621642962917419" transform="matrix(0.8648935333008401,0.5019553526504013,-0.5019553526504013,0.8648935333008401,638.2098776973281,235.4290935381805)" fill="none" stroke="#2c2891" filter="url(#bbburst-blur-1)"></use><use xlink:href="#bbburst-shape-10" width="31.674242778522434" opacity="0.09300467136011126" transform="matrix(1.571057145999023,-0.7708952224559472,0.7708952224559472,1.571057145999023,-136.7525262347849,137.57534815416273)" fill="none" stroke="#2c2891" filter="url(#bbburst-blur-4)"></use><use xlink:href="#bbburst-shape-4" width="20.923856561386184" opacity="0.9635907738331038" transform="matrix(0.7071368404934892,-0.7070767206017219,0.7070767206017219,0.7071368404934892,115.4841260649743,109.19523334168372)" fill="#ff5c58"></use><use xlink:href="#bbburst-shape-6" width="17.884735930380653" opacity="0.8846366581195911" transform="matrix(0.985760545752035,-0.16815512611469843,0.16815512611469843,0.985760545752035,279.99496072927275,-20.465139112539248)" fill="#ffa6d5"></use><use xlink:href="#bbburst-shape-8" width="39.91377579328082" opacity="0.17634871433964527" transform="matrix(1.1965385696410498,-0.36165653783852847,0.36165653783852847,1.1965385696410498,339.01513033885357,-426.0918306794338)" fill="none" stroke="#ffa6d5" filter="url(#bbburst-blur-3)"></use><use xlink:href="#bbburst-shape-6" width="21.924009529720355" opacity="0.8044587248431586" transform="matrix(0.8477027794330652,-0.5304714862661858,0.5304714862661858,0.8477027794330652,133.81520369475012,-9.057930136287325)" fill="#ff5c58"></use><use xlink:href="#bbburst-shape-4" width="23.261557175958416" opacity="0.8399489129812121" transform="matrix(0.8648216106397587,-0.502079258454732,0.502079258454732,0.8648216106397587,214.63757970368178,127.28038586433524)" fill="#ffa6d5"></use><use xlink:href="#bbburst-shape-10" width="27.01360534468734" opacity="0.8499568638251507" transform="matrix(0.81609513182318,0.5779175856595008,-0.5779175856595008,0.81609513182318,643.4493234149754,2.3862463131486606)" fill="none" stroke="#ffbd9b"></use><use xlink:href="#bbburst-shape-12" width="38.883400534640394" opacity="0.4171571867614595" transform="matrix(0.7609372855452661,0.648825436821802,-0.648825436821802,0.7609372855452661,906.5729858114344,98.9530638486151)" fill="none" stroke="#ffbd9b" filter="url(#bbburst-blur-2)"></use><use xlink:href="#bbburst-shape-12" width="40.35495837674834" opacity="0.42894275922079106" transform="matrix(0.8225724559166541,0.5686603158013088,-0.5686603158013088,0.8225724559166541,468.4055418988565,273.28133918747164)" fill="none" stroke="#ff5c58" filter="url(#bbburst-blur-2)"></use><use xlink:href="#bbburst-shape-12" width="27.667468536247124" opacity="0.6649014795950429" transform="matrix(0.8809559880049143,0.47319821132194206,-0.47319821132194206,0.8809559880049143,492.7395275048856,166.0054390127106)" fill="none" stroke="#2c2891" filter="url(#bbburst-blur-1)"></use><use xlink:href="#bbburst-shape-10" width="39.4051448830417" opacity="0.19387286473641074" transform="matrix(1.1419859883593826,-0.5082991268838104,0.5082991268838104,1.1419859883593826,131.69331843359225,313.4809235021787)" fill="none" stroke="#2c2891" filter="url(#bbburst-blur-3)"></use><use xlink:href="#bbburst-shape-12" width="36.96087541479022" opacity="0.4645396142740257" transform="matrix(0.9158928467651308,-0.4014228359778059,0.4014228359778059,0.9158928467651308,441.19586601307685,-60.10777366880859)" fill="none" stroke="#ffa6d5" filter="url(#bbburst-blur-2)"></use><use xlink:href="#bbburst-shape-6" width="25.65109527943025" opacity="0.7189685529935819" transform="matrix(0.9355329610424479,0.3532394072058634,-0.3532394072058634,0.9355329610424479,586.9316762694963,133.82399069957438)" fill="#2c2891" filter="url(#bbburst-blur-1)"></use><use xlink:href="#bbburst-shape-8" width="34.88995879302605" opacity="0.19678846660558857" transform="matrix(0.9361139793394686,0.8283662340325232,-0.8283662340325232,0.9361139793394686,1074.8773008303513,-22.696727982246387)" fill="none" stroke="#2c2891" filter="url(#bbburst-blur-3)"></use><use xlink:href="#bbburst-shape-4" width="30.918819715182458" opacity="0.6991273649565657" transform="matrix(0.9984377287910363,-0.05587577047877705,0.05587577047877705,0.9984377287910363,419.5913731035811,-121.11783773692173)" fill="#ffa6d5" filter="url(#bbburst-blur-1)"></use><use xlink:href="#bbburst-shape-4" width="20.560244526287686" opacity="0.7568463306655122" transform="matrix(0.9363141250487146,-0.35116357902587225,0.35116357902587225,0.9363141250487146,359.3109086785373,31.39020543062304)" fill="#ffa6d5" filter="url(#bbburst-blur-1)"></use><use xlink:href="#bbburst-shape-4" width="32.52170456027082" opacity="0.7317678245853656" transform="matrix(0.9777143881803658,0.20993945590358415,-0.20993945590358415,0.9777143881803658,353.6695044919267,-32.9655464594577)" fill="#2c2891" filter="url(#bbburst-blur-1)"></use><use xlink:href="#bbburst-shape-1" width="52.26282301546125" opacity="-0.06160093969345848" transform="matrix(1.4534068763076395,0.9747350675448533,-0.9747350675448533,1.4534068763076395,1097.6208299025002,-536.3699701721055)" fill="#ff5c58" filter="url(#bbburst-blur-4)"></use><use xlink:href="#bbburst-shape-6" width="32.627941615867826" opacity="0.43765648225180476" transform="matrix(0.7436712866737425,-0.66854544899881,0.66854544899881,0.7436712866737425,311.7277599461612,279.1169269586877)" fill="#ff5c58" filter="url(#bbburst-blur-2)"></use><use xlink:href="#bbburst-shape-6" width="40.72013794067159" opacity="0.18910676226035927" transform="matrix(1.0422223765932113,-0.6901250015239256,0.6901250015239256,1.0422223765932113,457.1826800238456,83.86413140779405)" fill="#2c2891" filter="url(#bbburst-blur-3)"></use><use xlink:href="#bbburst-shape-8" width="47.46786958098113" opacity="0.39433191925458155" transform="matrix(0.8702596614608772,-0.492593261864187,0.492593261864187,0.8702596614608772,-44.88853030313314,214.13826623991218)" fill="none" stroke="#00a19d" filter="url(#bbburst-blur-2)"></use><use xlink:href="#bbburst-shape-6" width="46.26305710401658" opacity="0.3512342225515728" transform="matrix(0.9399547473704528,-0.3412990959492103,0.3412990959492103,0.9399547473704528,138.37751603480922,-241.1219169437228)" fill="#00a19d" filter="url(#bbburst-blur-2)"></use><use xlink:href="#bbburst-shape-4" width="30.561986545301565" opacity="0.7431540326178392" transform="matrix(0.9737373270761045,-0.22767436803180896,0.22767436803180896,0.9737373270761045,188.84871195111944,61.866637629571414)" fill="#2c2891" filter="url(#bbburst-blur-1)"></use><use xlink:href="#bbburst-shape-1" width="26.507146362830923" opacity="0.8112359393500298" transform="matrix(0.7991430419583887,0.6011409140039405,-0.6011409140039405,0.7991430419583887,588.2160395532906,146.4469964108451)" fill="#ffa6d5"></use><use xlink:href="#bbburst-shape-6" width="52.07356599753086" opacity="-0.05392583480745938" transform="matrix(1.631132791991265,0.633960420602722,-0.633960420602722,1.631132791991265,278.7043518344807,-607.2371229846983)" fill="#ff5c58" filter="url(#bbburst-blur-4)"></use><use xlink:href="#bbburst-shape-8" width="25.427966149607546" opacity="0.8878853142655765" transform="matrix(0.994744549928237,0.10238789180400786,-0.10238789180400786,0.994744549928237,477.67351814713766,11.212335818430802)" fill="none" stroke="#00a19d"></use><use xlink:href="#bbburst-shape-12" width="42.42221566706826" opacity="0.10296395924845625" transform="matrix(1.5783304002350542,0.7558922857748013,-0.7558922857748013,1.5783304002350542,318.1095597053197,-47.82051441884289)" fill="none" stroke="#00a19d" filter="url(#bbburst-blur-4)"></use><use xlink:href="#bbburst-shape-4" width="37.80771710943954" opacity="0.10775972610203488" transform="matrix(1.481456678842196,-0.9315503790530337,0.9315503790530337,1.481456678842196,194.60519141251166,175.94313214897568)" fill="#2c2891" filter="url(#bbburst-blur-4)"></use><use xlink:href="#bbburst-shape-8" width="25.867479486464898" opacity="0.774907611352017" transform="matrix(0.9555104026520733,0.2949574044225245,-0.2949574044225245,0.9555104026520733,591.2959723807058,-40.05982821343747)" fill="none" stroke="#ffa6d5" filter="url(#bbburst-blur-1)"></use><use xlink:href="#bbburst-shape-10" width="51.29700399770047" opacity="0.20080120516110556" transform="matrix(1.1541316658404153,0.4800834280668602,-0.4800834280668602,1.1541316658404153,325.1464288438441,-344.2183302910036)" fill="none" stroke="#00a19d" filter="url(#bbburst-blur-3)"></use><use xlink:href="#bbburst-shape-8" width="33.17231970319334" opacity="0.20117198616315235" transform="matrix(1.2457130291238951,0.10343620773679439,-0.10343620773679439,1.2457130291238951,61.26138603677371,-96.10678527483645)" fill="none" stroke="#2c2891" filter="url(#bbburst-blur-3)"></use><use xlink:href="#bbburst-shape-10" width="39.55898447169201" opacity="0.30282952041599387" transform="matrix(1.1464259624127835,0.49820428812478423,-0.49820428812478423,1.1464259624127835,875.2630678235394,-164.48916638942734)" fill="none" stroke="#2c2891" filter="url(#bbburst-blur-3)"></use><use xlink:href="#bbburst-shape-4" width="36.1539208816803" opacity="0.5480287547462745" transform="matrix(0.8503412154539662,0.5262317144569219,-0.5262317144569219,0.8503412154539662,542.8278185262735,246.93282733901754)" fill="#2c2891" filter="url(#bbburst-blur-2)"></use><use xlink:href="#bbburst-shape-1" width="49.34479460077887" opacity="-0.06335185527353282" transform="matrix(1.2972859223482296,-1.174542138740498,1.174542138740498,1.2972859223482296,232.0577683606537,252.9924419695517)" fill="#ffa6d5" filter="url(#bbburst-blur-4)"></use><use xlink:href="#bbburst-shape-10" width="33.53119655534558" opacity="0.3286097827836515" transform="matrix(1.2284199304820347,-0.2312671061662526,0.2312671061662526,1.2284199304820347,429.6272182935505,-353.7766445027586)" fill="none" stroke="#2c2891" filter="url(#bbburst-blur-3)"></use><use xlink:href="#bbburst-shape-10" width="37.88303741363242" opacity="0.21265907902852654" transform="matrix(1.2484667248224035,-0.06189375583385657,0.06189375583385657,1.2484667248224035,426.7039930189018,248.03630000271733)" fill="none" stroke="#ffbd9b" filter="url(#bbburst-blur-3)"></use><use xlink:href="#bbburst-shape-12" width="19.041466609785363" opacity="0.9277844546102892" transform="matrix(0.9982763039354253,-0.05868918981402217,0.05868918981402217,0.9982763039354253,357.7570334330105,32.36328669194074)" fill="none" stroke="#2c2891"></use><use xlink:href="#bbburst-shape-6" width="37.66526864209756" opacity="0.20817498176759586" transform="matrix(1.2401808550816242,-0.15636958364404352,0.15636958364404352,1.2401808550816242,291.384933393931,-448.7236838033214)" fill="#ffbd9b" filter="url(#bbburst-blur-3)"></use><use xlink:href="#bbburst-shape-4" width="44.142594260248316" opacity="0.2862334377644692" transform="matrix(1.1574614810015873,0.4719988559282872,-0.4719988559282872,1.1574614810015873,452.42155846740036,228.11855158243304)" fill="#ffa6d5" filter="url(#bbburst-blur-3)"></use><use xlink:href="#bbburst-shape-4" width="20.81374169492785" opacity="0.8576550290175048" transform="matrix(0.8654356951637444,0.5010200171015591,-0.5010200171015591,0.8654356951637444,528.8656665160657,62.539303111791696)" fill="#00a19d"></use><use xlink:href="#bbburst-shape-14" width="39.464572917397845" opacity="0.5729893187295905" transform="matrix(0.723393340695945,-0.6904361481243291,0.6904361481243291,0.723393340695945,290.3967027400128,189.3569282026411)" fill="none" stroke="#ff5c58" filter="url(#bbburst-blur-1)"></use><use xlink:href="#bbburst-shape-10" width="34.23841514573673" opacity="0.3986326580809233" transform="matrix(0.9806116115418484,-0.19596139239477522,0.19596139239477522,0.9806116115418484,324.88180727255633,-258.7611962508378)" fill="none" stroke="#ff5c58" filter="url(#bbburst-blur-2)"></use><use xlink:href="#bbburst-shape-8" width="38.38009427514008" opacity="0.6104086264666067" transform="matrix(0.7275272341522137,-0.6860788027383079,0.6860788027383079,0.7275272341522137,284.95585602375576,95.9637120811962)" fill="none" stroke="#ffbd9b" filter="url(#bbburst-blur-1)"></use><use xlink:href="#bbburst-shape-6" width="41.33717989889924" opacity="0.12219650318176811" transform="matrix(1.2024733169856237,0.3414058024369122,-0.3414058024369122,1.2024733169856237,343.0766868960236,-445.25291020000975)" fill="#ffa6d5" filter="url(#bbburst-blur-3)"></use><use xlink:href="#bbburst-shape-4" width="40.930789136341616" opacity="0.2779887533668399" transform="matrix(1.129667983487615,0.5351170405462953,-0.5351170405462953,1.129667983487615,275.1548901543182,-139.34965289467766)" fill="#ffa6d5" filter="url(#bbburst-blur-3)"></use><use xlink:href="#bbburst-shape-12" width="24.556367057386808" opacity="0.7404876570024661" transform="matrix(0.9959626183618935,0.0897689413200435,-0.0897689413200435,0.9959626183618935,523.3860153283688,61.271320211684895)" fill="none" stroke="#ff5c58" filter="url(#bbburst-blur-1)"></use><use xlink:href="#bbburst-shape-10" width="40.30546374355411" opacity="0.2413500370792968" transform="matrix(1.020034799763551,-0.7225157488050571,0.7225157488050571,1.020034799763551,348.8394550984683,-216.56106122246464)" fill="none" stroke="#ffa6d5" filter="url(#bbburst-blur-3)"></use><use xlink:href="#bbburst-shape-4" width="32.325551918453314" opacity="0.7055080923425273" transform="matrix(0.95080585917616,-0.3097873757212907,0.3097873757212907,0.95080585917616,254.36307851552283,157.08109708004105)" fill="#00a19d" filter="url(#bbburst-blur-1)"></use><use xlink:href="#bbburst-shape-10" width="42.64021675438971" opacity="0.07869258217797748" transform="matrix(1.615867100462555,-0.671917787860044,0.671917787860044,1.615867100462555,329.40756273607485,-575.196429226547)" fill="none" stroke="#00a19d" filter="url(#bbburst-blur-4)"></use><use xlink:href="#bbburst-shape-6" width="40.09746838609051" opacity="0.33135138333893976" transform="matrix(1.1856781509804866,-0.3958122310989074,0.3958122310989074,1.1856781509804866,488.7919171592566,64.6442444280583)" fill="#ffa6d5" filter="url(#bbburst-blur-3)"></use><use xlink:href="#bbburst-shape-1" width="40.55463955632295" opacity="0.3405670518649434" transform="matrix(0.8198169794260916,0.5726256370829718,-0.5726256370829718,0.8198169794260916,362.5466069119936,-99.596607783884)" fill="#ff5c58" filter="url(#bbburst-blur-2)"></use><use xlink:href="#bbburst-shape-8" width="52.3892280758186" opacity="0.21188665179754174" transform="matrix(0.9564799817946296,-0.8047645894459727,0.8047645894459727,0.9564799817946296,-195.6610632877208,291.32309995469257)" fill="none" stroke="#ffbd9b" filter="url(#bbburst-blur-3)"></use></svg>